<?xml version="1.0" standalone="no"?>
<svg xmlns:xlink="http://www.w3.org/1999/xlink" id="wave" style="transform:rotate(180deg); transition: 0.3s" viewBox="0 0 1440 170" version="1.1" xmlns="http://www.w3.org/2000/svg"><defs><linearGradient id="sw-gradient-0" x1="0" x2="0" y1="1" y2="0"><stop stop-color="rgba(255, 255, 255, 1)" offset="0%"/><stop stop-color="rgba(255, 255, 255, 1)" offset="100%"/></linearGradient></defs><path style="transform:translate(0, 0px); opacity:1" fill="url(#sw-gradient-0)" d="M0,0L20,11.3C40,23,80,45,120,51C160,57,200,45,240,53.8C280,62,320,91,360,93.5C400,96,440,74,480,53.8C520,34,560,17,600,17C640,17,680,34,720,36.8C760,40,800,28,840,39.7C880,51,920,85,960,99.2C1000,113,1040,108,1080,110.5C1120,113,1160,125,1200,119C1240,113,1280,91,1320,82.2C1360,74,1400,79,1440,79.3C1480,79,1520,74,1560,65.2C1600,57,1640,45,1680,53.8C1720,62,1760,91,1800,107.7C1840,125,1880,130,1920,124.7C1960,119,2000,102,2040,96.3C2080,91,2120,96,2160,104.8C2200,113,2240,125,2280,116.2C2320,108,2360,79,2400,65.2C2440,51,2480,51,2520,48.2C2560,45,2600,40,2640,45.3C2680,51,2720,68,2760,76.5C2800,85,2840,85,2860,85L2880,85L2880,170L2860,170C2840,170,2800,170,2760,170C2720,170,2680,170,2640,170C2600,170,2560,170,2520,170C2480,170,2440,170,2400,170C2360,170,2320,170,2280,170C2240,170,2200,170,2160,170C2120,170,2080,170,2040,170C2000,170,1960,170,1920,170C1880,170,1840,170,1800,170C1760,170,1720,170,1680,170C1640,170,1600,170,1560,170C1520,170,1480,170,1440,170C1400,170,1360,170,1320,170C1280,170,1240,170,1200,170C1160,170,1120,170,1080,170C1040,170,1000,170,960,170C920,170,880,170,840,170C800,170,760,170,720,170C680,170,640,170,600,170C560,170,520,170,480,170C440,170,400,170,360,170C320,170,280,170,240,170C200,170,160,170,120,170C80,170,40,170,20,170L0,170Z"/></svg>