<svg width="60" height="60" viewBox="0 0 60 60" fill="none" xmlns="http://www.w3.org/2000/svg">
<mask id="mask0_343_177" style="mask-type:alpha" maskUnits="userSpaceOnUse" x="0" y="0" width="60" height="60">
<rect width="60" height="60" fill="#D9D9D9"/>
</mask>
<g mask="url(#mask0_343_177)">
<path d="M4 60V11.5896C4 10.3858 4.46125 9.31993 5.38375 8.39196C6.30625 7.46399 7.36583 7 8.5625 7H51.4375C52.6342 7 53.6937 7.46399 54.6162 8.39196C55.5387 9.31993 56 10.3858 56 11.5896V44.5338C56 45.738 55.5387 46.8039 54.6162 47.7314C53.6937 48.6594 52.6342 49.1234 51.4375 49.1234H14.8125L4 60ZM14.5 38.624H35V34.8517H14.5V38.624ZM14.5 29.9478H45.5V26.1756H14.5V29.9478ZM14.5 21.3345H45.5V17.5623H14.5V21.3345Z" fill="#A20F16"/>
</g>
</svg>
