<svg width="60" height="60" viewBox="0 0 60 60" fill="none" xmlns="http://www.w3.org/2000/svg">
<mask id="mask0_343_174" style="mask-type:alpha" maskUnits="userSpaceOnUse" x="0" y="0" width="60" height="60">
<rect width="60" height="60" fill="#D9D9D9"/>
</mask>
<g mask="url(#mask0_343_174)">
<path d="M49.1875 52C44.3542 52 39.4271 50.8333 34.4063 48.5C29.3854 46.1667 24.7292 42.8542 20.4375 38.5625C16.1458 34.2708 12.8333 29.6146 10.5 24.5938C8.16667 19.5729 7 14.6458 7 9.8125C7 9.02083 7.27083 8.35417 7.8125 7.8125C8.35417 7.27083 9.02083 7 9.8125 7H18.5625C19.1458 7 19.6458 7.20833 20.0625 7.625C20.4792 8.04167 20.7708 8.5625 20.9375 9.1875L22.625 17.0625C22.7083 17.6458 22.6979 18.1771 22.5938 18.6562C22.4896 19.1354 22.2708 19.5417 21.9375 19.875L15.6875 26.1875C16.7708 28.0208 17.9167 29.7292 19.125 31.3125C20.3333 32.8958 21.6667 34.3958 23.125 35.8125C24.6667 37.3958 26.2917 38.8438 28 40.1562C29.7083 41.4688 31.5 42.625 33.375 43.625L39.3125 37.5C39.7292 37.0417 40.2083 36.7292 40.75 36.5625C41.2917 36.3958 41.8333 36.3542 42.375 36.4375L49.8125 38.0625C50.4375 38.2292 50.9583 38.5625 51.375 39.0625C51.7917 39.5625 52 40.125 52 40.75V49.1875C52 49.9792 51.7292 50.6458 51.1875 51.1875C50.6458 51.7292 49.9792 52 49.1875 52Z" fill="#A20F16"/>
</g>
</svg>
